{
  "asset": {
    "generator": "Khronos glTF Blender I/O v0.9.36",
    "version": "2.0"
  },
  "scene": 0,
  "scenes": [
    {
      "name": "Scene",
      "nodes": [
        0
      ]
    }
  ],
  "nodes": [
    {
      "mesh": 0,
      "name": "Sphere.000",
      "rotation": [
        1,
        0,
        0,
        -1.3435885648505064e-7
      ],
      "scale": [
        0.3136759400367737,
        0.31367599964141846,
        0.33823084831237793
      ],
      "translation": [
        -0.000354766845703125,
        0.9314898252487183,
        16.25263023376465
      ]
    }
  ],
  "materials": [
    {
      "doubleSided": true,
      "name": "Material.013",
      "pbrMetallicRoughness": {
        "baseColorTexture": {
          "index": 0,
          "texCoord": 0
        },
        "metallicFactor": 0,
        "roughnessFactor": 0.5
      }
    },
    {
      "doubleSided": true,
      "name": "Material.014",
      "pbrMetallicRoughness": {
        "baseColorTexture": {
          "index": 1,
          "texCoord": 0
        },
        "metallicFactor": 0,
        "roughnessFactor": 0.5
      }
    }
  ],
  "meshes": [
    {
      "name": "Sphere.005",
      "primitives": [
        {
          "attributes": {
            "POSITION": 0,
            "NORMAL": 1,
            "TEXCOORD_0": 2
          },
          "indices": 3,
          "material": 0
        },
        {
          "attributes": {
            "POSITION": 4,
            "NORMAL": 5,
            "TEXCOORD_0": 6
          },
          "indices": 7,
          "material": 1
        }
      ]
    }
  ],
  "textures": [
    {
      "source": 0
    },
    {
      "source": 1
    }
  ],
  "images": [
    {
      "name": "Speeder Livery",
      "uri": "your-model_img0.png"
    },
    {
      "name": "Image_1",
      "uri": "your-model_img1.png"
    }
  ],
  "accessors": [
    {
      "bufferView": 0,
      "componentType": 5126,
      "count": 10220,
      "max": [
        6.879716873168945,
        4.0136003494262695,
        4.846095085144043
      ],
      "min": [
        -7.026822090148926,
        -1.1426174640655518,
        -13.250155448913574
      ],
      "type": "VEC3"
    },
    {
      "bufferView": 1,
      "componentType": 5126,
      "count": 10220,
      "type": "VEC3"
    },
    {
      "bufferView": 2,
      "componentType": 5126,
      "count": 10220,
      "type": "VEC2"
    },
    {
      "bufferView": 3,
      "componentType": 5123,
      "count": 32598,
      "type": "SCALAR"
    },
    {
      "bufferView": 4,
      "componentType": 5126,
      "count": 2301,
      "max": [
        5.427952766418457,
        3.1364738941192627,
        1.0355335474014282
      ],
      "min": [
        -5.587382793426514,
        2.741753101348877,
        -1.9079773426055908
      ],
      "type": "VEC3"
    },
    {
      "bufferView": 5,
      "componentType": 5126,
      "count": 2301,
      "type": "VEC3"
    },
    {
      "bufferView": 6,
      "componentType": 5126,
      "count": 2301,
      "type": "VEC2"
    },
    {
      "bufferView": 7,
      "componentType": 5123,
      "count": 7176,
      "type": "SCALAR"
    }
  ],
  "bufferViews": [
    {
      "buffer": 0,
      "byteLength": 122640,
      "byteOffset": 0
    },
    {
      "buffer": 0,
      "byteLength": 122640,
      "byteOffset": 122640
    },
    {
      "buffer": 0,
      "byteLength": 81760,
      "byteOffset": 245280
    },
    {
      "buffer": 0,
      "byteLength": 65196,
      "byteOffset": 327040
    },
    {
      "buffer": 0,
      "byteLength": 27612,
      "byteOffset": 392236
    },
    {
      "buffer": 0,
      "byteLength": 27612,
      "byteOffset": 419848
    },
    {
      "buffer": 0,
      "byteLength": 18408,
      "byteOffset": 447460
    },
    {
      "buffer": 0,
      "byteLength": 14352,
      "byteOffset": 465868
    }
  ],
  "buffers": [
    {
      "uri": "your-model_data.bin",
      "byteLength": 480220
    }
  ]
}