<svg width="24" height="7" viewBox="0 0 24 7" fill="none" xmlns="http://www.w3.org/2000/svg">
<path d="M0 1.42303C0 0.847357 0.466674 0.380682 1.04235 0.380682V0.380682C1.46527 0.380682 1.84628 0.636233 2.00675 1.02753L3.20581 3.95141C3.21364 3.97049 3.23222 3.98295 3.25284 3.98295V3.98295C3.27346 3.98295 3.29204 3.97049 3.29987 3.95141L4.49893 1.02753C4.6594 0.636233 5.04041 0.380682 5.46334 0.380682V0.380682C6.03901 0.380682 6.50568 0.847357 6.50568 1.42303V5.5142C6.50568 5.89233 6.19915 6.19886 5.82102 6.19886V6.19886C5.4429 6.19886 5.13636 5.89233 5.13636 5.51421V2.65375C5.13636 2.63787 5.12349 2.625 5.10762 2.625V2.625C5.09582 2.625 5.08522 2.63221 5.08088 2.64318L3.85097 5.75547C3.75403 6.00077 3.51705 6.16193 3.25329 6.16193V6.16193C2.98908 6.16193 2.7518 6.00023 2.65516 5.75433L1.42477 2.62333C1.42045 2.61234 1.40985 2.60511 1.39804 2.60511V2.60511C1.38218 2.60511 1.36932 2.61797 1.36932 2.63384V5.51421C1.36932 5.89233 1.06279 6.19886 0.684659 6.19886V6.19886C0.306532 6.19886 0 5.89233 0 5.51421V1.42303Z" fill="white"/>
<path d="M9.42259 6.28125C8.96615 6.28125 8.57221 6.19129 8.24077 6.01136C7.91122 5.82955 7.65743 5.57102 7.4794 5.2358C7.30327 4.89868 7.2152 4.49811 7.2152 4.03409C7.2152 3.58333 7.30421 3.18939 7.48224 2.85227C7.66027 2.51326 7.91122 2.25 8.23509 2.0625C8.55895 1.87311 8.94058 1.77841 9.37997 1.77841C9.69058 1.77841 9.97467 1.82671 10.2322 1.9233C10.4898 2.01989 10.7124 2.16288 10.8999 2.35227C11.0874 2.54167 11.2332 2.77557 11.3374 3.05398C11.4415 3.33049 11.4936 3.64773 11.4936 4.00568V4.00568C11.4936 4.1971 11.3384 4.35227 11.147 4.35227H8.1044C7.88161 4.35227 7.70099 4.17166 7.70099 3.94886V3.94886C7.70099 3.72607 7.88161 3.54545 8.1044 3.54545H9.7876C10.0151 3.54545 10.2115 3.34645 10.0959 3.15057V3.15057C10.0277 3.03504 9.93395 2.94508 9.81463 2.88068C9.69721 2.81439 9.56179 2.78125 9.40838 2.78125C9.25308 2.78125 9.11387 2.81629 8.99077 2.88636C8.86766 2.95455 8.77012 3.0483 8.69815 3.16761C8.62618 3.28504 8.58831 3.41856 8.58452 3.56818V4.3892C8.58452 4.56724 8.61955 4.72349 8.68963 4.85795C8.75971 4.99053 8.85914 5.09375 8.98793 5.16761C9.11671 5.24148 9.27012 5.27841 9.44815 5.27841C9.57126 5.27841 9.683 5.26136 9.78338 5.22727C9.88376 5.19318 9.96993 5.14299 10.0419 5.0767V5.0767C10.172 4.95686 10.3228 4.83583 10.4996 4.84095L10.6888 4.84643C11.1042 4.85846 11.4178 5.25873 11.1577 5.58291C11.1486 5.5942 11.1394 5.60539 11.13 5.61648C10.9519 5.8267 10.718 5.99053 10.4283 6.10795C10.1385 6.22349 9.80327 6.28125 9.42259 6.28125Z" fill="white"/>
<path d="M13.7969 6.26136C13.4749 6.26136 13.1823 6.17803 12.919 6.01136C12.6558 5.8447 12.4455 5.5947 12.2884 5.26136C12.1312 4.92803 12.0526 4.51421 12.0526 4.01989C12.0526 3.50663 12.134 3.08428 12.2969 2.75284C12.4598 2.4214 12.6728 2.17614 12.9361 2.01705C13.2012 1.85796 13.4863 1.77841 13.7912 1.77841C14.0204 1.77841 14.2164 1.81818 14.3793 1.89773C14.5421 1.97538 14.6766 2.07576 14.7827 2.19886C14.8859 2.31872 14.965 2.44306 15.0197 2.5719C15.0224 2.57824 15.0286 2.58239 15.0355 2.58239V2.58239C15.0449 2.58239 15.0526 2.57476 15.0526 2.56536V1.07528C15.0526 0.691666 15.3635 0.380682 15.7472 0.380682V0.380682C16.1308 0.380682 16.4418 0.691666 16.4418 1.07528V5.51136C16.4418 5.89106 16.134 6.19886 15.7543 6.19886H15.4205C15.2251 6.19886 15.0668 6.04051 15.0668 5.84517V5.51723C15.0668 5.50301 15.0552 5.49148 15.041 5.49148V5.49148C15.0308 5.49148 15.0215 5.49755 15.0173 5.50688C14.959 5.63558 14.878 5.75639 14.7741 5.86932C14.6662 5.98674 14.5308 6.08144 14.3679 6.15341C14.2069 6.22538 14.0166 6.26136 13.7969 6.26136ZM14.2798 5.17898C14.4484 5.17898 14.5923 5.13163 14.7116 5.03693C14.831 4.94034 14.9228 4.80493 14.9872 4.63068C15.0516 4.45644 15.0838 4.25189 15.0838 4.01705C15.0838 3.77841 15.0516 3.57292 14.9872 3.40057C14.9247 3.22822 14.8329 3.09564 14.7116 3.00284C14.5923 2.91004 14.4484 2.86364 14.2798 2.86364C14.1075 2.86364 13.9616 2.91098 13.8423 3.00568C13.723 3.10038 13.6321 3.2339 13.5696 3.40625C13.509 3.5786 13.4787 3.7822 13.4787 4.01705C13.4787 4.25189 13.5099 4.45644 13.5724 4.63068C13.6349 4.80493 13.7249 4.94034 13.8423 5.03693C13.9616 5.13163 14.1075 5.17898 14.2798 5.17898Z" fill="white"/>
<path d="M18.0149 6.19886C17.6313 6.19886 17.3203 5.88788 17.3203 5.50426V2.52983C17.3203 2.14621 17.6313 1.83523 18.0149 1.83523V1.83523C18.3985 1.83523 18.7095 2.14621 18.7095 2.52983V5.50426C18.7095 5.88788 18.3985 6.19886 18.0149 6.19886V6.19886ZM18.0163 1.3267C17.8213 1.3267 17.6536 1.26231 17.5135 1.13352C17.3733 1.00284 17.3033 0.845644 17.3033 0.661932C17.3033 0.480114 17.3733 0.324811 17.5135 0.196023C17.6536 0.065341 17.8213 0 18.0163 0C18.2133 0 18.3809 0.065341 18.5192 0.196023C18.6593 0.324811 18.7294 0.480114 18.7294 0.661932C18.7294 0.845644 18.6593 1.00284 18.5192 1.13352C18.3809 1.26231 18.2133 1.3267 18.0163 1.3267Z" fill="white"/>
<path d="M20.8239 6.27273C20.5455 6.27273 20.2983 6.22633 20.0824 6.13352C19.8684 6.03883 19.6989 5.89678 19.5739 5.70739C19.4508 5.5161 19.3892 5.27652 19.3892 4.98864C19.3892 4.74621 19.4318 4.54167 19.517 4.375C19.6023 4.20833 19.7197 4.07292 19.8693 3.96875C20.0189 3.86458 20.1913 3.78599 20.3864 3.73295C20.5814 3.67803 20.7898 3.6411 21.0114 3.62216C21.2595 3.59943 21.4593 3.57576 21.6108 3.55114C21.7623 3.52462 21.8722 3.48769 21.9403 3.44034C22.0104 3.3911 22.0455 3.32197 22.0455 3.23295V3.21875C22.0455 3.07292 21.9953 2.96023 21.8949 2.88068C21.7945 2.80114 21.6591 2.76136 21.4886 2.76136C21.3049 2.76136 21.1572 2.80114 21.0455 2.88068V2.88068C20.8559 3.01561 20.6631 3.20422 20.4306 3.19597L20.2825 3.19072C19.8918 3.17686 19.5909 2.80934 19.8173 2.49067C19.8259 2.47854 19.8347 2.4665 19.8438 2.45455C20.0028 2.24432 20.2206 2.07955 20.4972 1.96023C20.7756 1.83902 21.1098 1.77841 21.5 1.77841C21.7784 1.77841 22.035 1.81155 22.2699 1.87784C22.5047 1.94223 22.7093 2.03693 22.8835 2.16193C23.0578 2.28504 23.1922 2.43655 23.2869 2.61648C23.3835 2.7964 23.4318 3.00189 23.4318 3.23295V5.54546C23.4318 5.90632 23.1393 6.19886 22.7784 6.19886H22.429C22.2611 6.19886 22.125 6.06277 22.125 5.89489V5.61216C22.125 5.60042 22.1155 5.59091 22.1037 5.59091V5.59091C22.0959 5.59091 22.0886 5.5953 22.0849 5.60225C22.0081 5.74504 21.9107 5.86626 21.7926 5.96591C21.6733 6.06818 21.5322 6.14489 21.3693 6.19602C21.2083 6.24716 21.0265 6.27273 20.8239 6.27273ZM21.2528 5.36364C21.4025 5.36364 21.5369 5.33333 21.6562 5.27273C21.7775 5.21212 21.8741 5.12879 21.946 5.02273C22.018 4.91477 22.054 4.78977 22.054 4.64773V4.38881C22.054 4.31793 21.977 4.2694 21.9091 4.28977V4.28977C21.8542 4.30682 21.7936 4.32292 21.7273 4.33807C21.661 4.35322 21.5928 4.36648 21.5227 4.37784C21.4527 4.3892 21.3854 4.39962 21.321 4.40909C21.1903 4.42992 21.0786 4.46212 20.9858 4.50568C20.8949 4.54924 20.8248 4.60606 20.7756 4.67614C20.7282 4.74432 20.7045 4.82576 20.7045 4.92045C20.7045 5.06439 20.7557 5.17424 20.858 5.25C20.9621 5.32576 21.0938 5.36364 21.2528 5.36364Z" fill="white"/>
</svg>
