<svg width="67" height="9" viewBox="0 0 67 9" fill="none" xmlns="http://www.w3.org/2000/svg">
<path d="M8.45743 4.48295C8.45743 5.44318 8.27277 6.2571 7.90345 6.92472C7.53414 7.59233 7.03414 8.09943 6.40345 8.44602C5.77561 8.79261 5.07107 8.96591 4.28982 8.96591C3.50573 8.96591 2.79976 8.79119 2.17192 8.44176C1.54408 8.09233 1.0455 7.58523 0.676181 6.92045C0.309703 6.25284 0.126465 5.44034 0.126465 4.48295C0.126465 3.52273 0.309703 2.70881 0.676181 2.04119C1.0455 1.37358 1.54408 0.866477 2.17192 0.519886C2.79976 0.173295 3.50573 0 4.28982 0C5.07107 0 5.77561 0.173295 6.40345 0.519886C7.03414 0.866477 7.53414 1.37358 7.90345 2.04119C8.27277 2.70881 8.45743 3.52273 8.45743 4.48295ZM6.30118 4.48295C6.30118 3.91477 6.22022 3.43466 6.05828 3.04261C5.89919 2.65057 5.66908 2.35369 5.36794 2.15199C5.06965 1.95028 4.71027 1.84943 4.28982 1.84943C3.8722 1.84943 3.51283 1.95028 3.21169 2.15199C2.91056 2.35369 2.67902 2.65057 2.51709 3.04261C2.358 3.43466 2.27845 3.91477 2.27845 4.48295C2.27845 5.05114 2.358 5.53125 2.51709 5.9233C2.67902 6.31534 2.91056 6.61222 3.21169 6.81392C3.51283 7.01563 3.8722 7.11648 4.28982 7.11648C4.71027 7.11648 5.06965 7.01563 5.36794 6.81392C5.66908 6.61222 5.89919 6.31534 6.05828 5.9233C6.22022 5.53125 6.30118 5.05114 6.30118 4.48295Z" fill="white"/>
<path d="M12.7444 8.97017C12.054 8.97017 11.4617 8.82812 10.9674 8.54403C10.4759 8.25994 10.0981 7.86506 9.83385 7.35938C9.56965 6.85085 9.43754 6.26278 9.43754 5.59517C9.43754 4.92472 9.56965 4.33665 9.83385 3.83097C10.1009 3.32244 10.4802 2.92614 10.9716 2.64205C11.466 2.35795 12.0554 2.21591 12.7401 2.21591C13.3452 2.21591 13.8722 2.32528 14.3211 2.54403C14.7728 2.76278 15.125 3.07244 15.3779 3.47301C15.456 3.59452 15.5228 3.72252 15.5784 3.85702C15.7969 4.38578 15.3107 4.875 14.7386 4.875H14.7103C14.2112 4.875 13.8446 4.44222 13.4944 4.08665V4.08665C13.3097 3.89631 13.0682 3.80114 12.7699 3.80114C12.5285 3.80114 12.3168 3.86932 12.135 4.00568C11.9532 4.1392 11.8111 4.33807 11.7089 4.60227C11.6094 4.86364 11.5597 5.1875 11.5597 5.57386C11.5597 5.96023 11.6094 6.28693 11.7089 6.55398C11.8111 6.81818 11.9532 7.01847 12.135 7.15483C12.3168 7.28835 12.5285 7.35511 12.7699 7.35511C12.9631 7.35511 13.1336 7.31392 13.2813 7.23153C13.4319 7.14915 13.5554 7.02841 13.652 6.86932V6.86932C13.833 6.56585 14.1026 6.28125 14.4559 6.28125H14.7372C15.3083 6.28125 15.7897 6.771 15.5773 7.30109C15.5219 7.43929 15.4554 7.57093 15.3779 7.69602C15.1307 8.09943 14.7827 8.41335 14.3339 8.63778C13.8878 8.85937 13.358 8.97017 12.7444 8.97017Z" fill="white"/>
<path d="M19.7767 2.30114C20.2003 2.30114 20.5437 2.64455 20.5437 3.06818V3.06818C20.5437 3.49181 20.2003 3.83523 19.7767 3.83523H17.1815C16.7579 3.83523 16.4145 3.49181 16.4145 3.06818V3.06818C16.4145 2.64455 16.7579 2.30114 17.1815 2.30114H19.7767ZM17.2795 1.77486C17.2795 1.19943 17.746 0.732955 18.3214 0.732955V0.732955C18.8968 0.732955 19.3633 1.19943 19.3633 1.77486V6.78835C19.3633 6.91619 19.3832 7.01989 19.423 7.09943C19.4656 7.17614 19.5267 7.23153 19.6062 7.26563C19.6858 7.29688 19.7809 7.3125 19.8917 7.3125C19.9713 7.3125 20.0551 7.3054 20.1432 7.29119V7.29119C20.2553 7.27017 20.3672 7.34144 20.3906 7.4531L20.5738 8.32694C20.6241 8.56694 20.4799 8.80342 20.2412 8.85938V8.85938C20.0622 8.90199 19.8477 8.92898 19.5977 8.94034C19.1091 8.96307 18.69 8.90625 18.3406 8.76989C17.994 8.63068 17.7284 8.41477 17.5437 8.12216C17.3619 7.82955 17.2738 7.46165 17.2795 7.01847V1.77486Z" fill="white"/>
<path d="M23.4521 8.95739C23.0345 8.95739 22.6638 8.88778 22.3399 8.74858C22.0189 8.60653 21.7646 8.39347 21.5771 8.10938C21.3924 7.82244 21.3001 7.46307 21.3001 7.03125C21.3001 6.66761 21.364 6.3608 21.4919 6.1108C21.6197 5.8608 21.7959 5.65767 22.0203 5.50142C22.2447 5.34517 22.5032 5.22727 22.7959 5.14773C23.0885 5.06534 23.401 5.00994 23.7334 4.98153C24.1055 4.94744 24.4052 4.91193 24.6325 4.875C24.8598 4.83523 25.0245 4.77983 25.1268 4.70881C25.2319 4.63494 25.2845 4.53125 25.2845 4.39773V4.37642C25.2845 4.15767 25.2092 3.98864 25.0586 3.86932C24.9081 3.75 24.7049 3.69034 24.4493 3.69034C24.1737 3.69034 23.9521 3.75 23.7845 3.86932V3.86932C23.5002 4.07172 23.211 4.35463 22.8622 4.34226L22.64 4.33437C22.054 4.31358 21.6026 3.7623 21.9422 3.28431C21.9552 3.2661 21.9684 3.24804 21.9819 3.23011C22.2206 2.91477 22.5473 2.66761 22.962 2.48864C23.3797 2.30682 23.8811 2.21591 24.4663 2.21591C24.8839 2.21591 25.2689 2.26563 25.6211 2.36506C25.9734 2.46165 26.2802 2.60369 26.5416 2.79119C26.803 2.97585 27.0047 3.20313 27.1467 3.47301C27.2916 3.7429 27.364 4.05114 27.364 4.39773V7.86648C27.364 8.40778 26.9252 8.84659 26.3839 8.84659H25.8598C25.608 8.84659 25.4038 8.64245 25.4038 8.39063V7.96654C25.4038 7.94893 25.3895 7.93466 25.3719 7.93466V7.93466C25.3601 7.93466 25.3492 7.94124 25.3436 7.95167C25.2285 8.16586 25.0824 8.34769 24.9052 8.49716C24.7263 8.65057 24.5146 8.76563 24.2703 8.84233C24.0288 8.91903 23.7561 8.95739 23.4521 8.95739ZM24.0956 7.59375C24.32 7.59375 24.5217 7.5483 24.7007 7.45739C24.8825 7.36648 25.0274 7.24148 25.1353 7.08239C25.2433 6.92045 25.2973 6.73295 25.2973 6.51989V6.13152C25.2973 6.02519 25.1818 5.9524 25.0799 5.98295V5.98295C24.9976 6.00852 24.9066 6.03267 24.8072 6.0554C24.7078 6.07813 24.6055 6.09801 24.5004 6.11506C24.3953 6.1321 24.2944 6.14773 24.1978 6.16193C24.0018 6.19318 23.8342 6.24148 23.695 6.30682C23.5586 6.37216 23.4535 6.45739 23.3797 6.5625C23.3086 6.66477 23.2731 6.78693 23.2731 6.92898C23.2731 7.14489 23.3498 7.30966 23.5032 7.4233C23.6595 7.53693 23.8569 7.59375 24.0956 7.59375Z" fill="white"/>
<path d="M29.1911 0.119318C29.6778 0.119318 30.1074 0.437345 30.2496 0.902891L31.9515 6.47672C31.9578 6.4973 31.9767 6.51136 31.9983 6.51136V6.51136C32.0198 6.51136 32.0388 6.4973 32.0451 6.47672L33.7469 0.902891C33.8891 0.437345 34.3187 0.119318 34.8055 0.119318V0.119318C35.5626 0.119318 36.0962 0.86252 35.8542 1.57993L33.8513 7.51616C33.583 8.31126 32.8374 8.84659 31.9983 8.84659V8.84659C31.1591 8.84659 30.4135 8.31126 30.1453 7.51616L28.1424 1.57993C27.9003 0.862522 28.4339 0.119318 29.1911 0.119318V0.119318Z" fill="white"/>
<path d="M39.5611 8.97017C38.8765 8.97017 38.2856 8.83523 37.7884 8.56534C37.2941 8.29261 36.9134 7.90483 36.6464 7.40199C36.3821 6.89631 36.25 6.29545 36.25 5.59943C36.25 4.9233 36.3836 4.33239 36.6506 3.8267C36.9177 3.31818 37.2941 2.9233 37.7799 2.64205C38.2657 2.35795 38.8381 2.21591 39.4972 2.21591C39.9631 2.21591 40.3893 2.28835 40.7756 2.43324C41.162 2.57812 41.4958 2.79261 41.777 3.0767C42.0583 3.3608 42.277 3.71165 42.4333 4.12926C42.5895 4.54403 42.6677 5.01989 42.6677 5.55682V5.55682C42.6677 5.84394 42.4349 6.0767 42.1478 6.0767H37.5839C37.2497 6.0767 36.9787 5.80579 36.9787 5.47159V5.47159C36.9787 5.1374 37.2497 4.86648 37.5839 4.86648H40.1087C40.4498 4.86648 40.7445 4.56797 40.5711 4.27415V4.27415C40.4688 4.10085 40.3282 3.96591 40.1492 3.86932C39.9731 3.76989 39.7699 3.72017 39.5398 3.72017C39.3069 3.72017 39.0981 3.77273 38.9134 3.87784C38.7287 3.98011 38.5824 4.12074 38.4745 4.29972C38.3665 4.47585 38.3097 4.67614 38.304 4.90057V6.1321C38.304 6.39915 38.3566 6.63352 38.4617 6.83523C38.5668 7.03409 38.716 7.18892 38.9091 7.29972C39.1023 7.41051 39.3324 7.46591 39.5995 7.46591C39.7841 7.46591 39.9517 7.44034 40.1023 7.3892C40.2529 7.33807 40.3821 7.26278 40.4901 7.16335V7.16335C40.6853 6.98358 40.9114 6.80204 41.1766 6.80972L41.4604 6.81794C42.0836 6.83598 42.5539 7.43639 42.1637 7.92266C42.1502 7.93959 42.1363 7.95638 42.1222 7.97301C41.8552 8.28835 41.5043 8.53409 41.0696 8.71023C40.635 8.88352 40.1321 8.97017 39.5611 8.97017Z" fill="white"/>
<path d="M44.7738 8.84659C44.1984 8.84659 43.7319 8.38011 43.7319 7.80469V3.31321C43.7319 2.75426 44.1851 2.30114 44.744 2.30114H45.1595C45.489 2.30114 45.7561 2.56824 45.7561 2.89773V3.4556C45.7561 3.47699 45.7734 3.49432 45.7948 3.49432V3.49432C45.8122 3.49432 45.8275 3.48264 45.8323 3.46591C45.9522 3.04839 46.1441 2.73684 46.4081 2.53125C46.678 2.31818 46.9919 2.21165 47.3498 2.21165C47.4464 2.21165 47.5459 2.21875 47.6481 2.23295V2.23295C47.8196 2.25201 47.9336 2.40703 47.9336 2.57955V3.69844C47.9336 3.89497 47.7367 4.04242 47.5416 4.01847V4.01847C47.3825 3.99858 47.2405 3.98864 47.1155 3.98864C46.8683 3.98864 46.6453 4.04403 46.4464 4.15483C46.2504 4.26278 46.0956 4.41477 45.9819 4.6108C45.8711 4.80398 45.8157 5.03125 45.8157 5.29261V7.80469C45.8157 8.38011 45.3493 8.84659 44.7738 8.84659V8.84659Z" fill="white"/>
<path d="M52.015 2.30114C52.4386 2.30114 52.782 2.64455 52.782 3.06818V3.06818C52.782 3.49181 52.4386 3.83523 52.015 3.83523H49.4198C48.9962 3.83523 48.6527 3.49181 48.6527 3.06818V3.06818C48.6527 2.64455 48.9962 2.30114 49.4198 2.30114H52.015ZM49.5178 1.77486C49.5178 1.19943 49.9843 0.732955 50.5597 0.732955V0.732955C51.1351 0.732955 51.6016 1.19943 51.6016 1.77486V6.78835C51.6016 6.91619 51.6215 7.01989 51.6613 7.09943C51.7039 7.17614 51.765 7.23153 51.8445 7.26563C51.9241 7.29688 52.0192 7.3125 52.13 7.3125C52.2096 7.3125 52.2934 7.3054 52.3814 7.29119V7.29119C52.4936 7.27017 52.6054 7.34144 52.6289 7.4531L52.812 8.32694C52.8624 8.56694 52.7182 8.80342 52.4795 8.85938V8.85938C52.3005 8.90199 52.086 8.92898 51.836 8.94034C51.3473 8.96307 50.9283 8.90625 50.5789 8.76989C50.2323 8.63068 49.9667 8.41477 49.782 8.12216C49.6002 7.82955 49.5121 7.46165 49.5178 7.01847V1.77486Z" fill="white"/>
<path d="M56.8346 8.97017C56.1499 8.97017 55.559 8.83523 55.0618 8.56534C54.5675 8.29261 54.1868 7.90483 53.9198 7.40199C53.6556 6.89631 53.5235 6.29545 53.5235 5.59943C53.5235 4.9233 53.657 4.33239 53.9241 3.8267C54.1911 3.31818 54.5675 2.9233 55.0533 2.64205C55.5391 2.35795 56.1116 2.21591 56.7706 2.21591C57.2366 2.21591 57.6627 2.28835 58.0491 2.43324C58.4354 2.57812 58.7692 2.79261 59.0505 3.0767C59.3317 3.3608 59.5505 3.71165 59.7067 4.12926C59.863 4.54403 59.9411 5.01989 59.9411 5.55682V5.55682C59.9411 5.84394 59.7083 6.0767 59.4212 6.0767H54.8573C54.5231 6.0767 54.2522 5.80579 54.2522 5.47159V5.47159C54.2522 5.1374 54.5231 4.86648 54.8573 4.86648H57.3821C57.7233 4.86648 58.0179 4.56797 57.8445 4.27415V4.27415C57.7422 4.10085 57.6016 3.96591 57.4226 3.86932C57.2465 3.76989 57.0434 3.72017 56.8133 3.72017C56.5803 3.72017 56.3715 3.77273 56.1868 3.87784C56.0022 3.98011 55.8559 4.12074 55.7479 4.29972C55.64 4.47585 55.5831 4.67614 55.5775 4.90057V6.1321C55.5775 6.39915 55.63 6.63352 55.7351 6.83523C55.8402 7.03409 55.9894 7.18892 56.1826 7.29972C56.3758 7.41051 56.6059 7.46591 56.8729 7.46591C57.0576 7.46591 57.2252 7.44034 57.3758 7.3892C57.5263 7.33807 57.6556 7.26278 57.7635 7.16335V7.16335C57.9587 6.98358 58.1848 6.80204 58.4501 6.80972L58.7339 6.81794C59.3571 6.83598 59.8273 7.43639 59.4372 7.92266C59.4236 7.93959 59.4097 7.95638 59.3956 7.97301C59.1286 8.28835 58.7777 8.53409 58.3431 8.71023C57.9084 8.88352 57.4056 8.97017 56.8346 8.97017Z" fill="white"/>
<path d="M62.1194 2.30114C62.4657 2.30114 62.7834 2.49924 62.9382 2.80891V2.80891C63.2794 3.49133 64.2549 3.50631 64.6057 2.82877L64.6248 2.79192C64.7809 2.49043 65.0921 2.30114 65.4316 2.30114V2.30114C66.1253 2.30114 66.5631 3.04714 66.2248 3.65274L65.2403 5.41528C65.1853 5.5136 65.1863 5.63359 65.2427 5.73103L66.2683 7.50094C66.6145 8.09847 66.1834 8.84659 65.4928 8.84659V8.84659C65.1666 8.84659 64.8662 8.66943 64.7084 8.38401L64.1456 7.36616C63.9801 7.06686 63.549 7.06913 63.3867 7.37017L62.8471 8.37081C62.6891 8.66388 62.383 8.84659 62.0501 8.84659V8.84659C61.3519 8.84659 60.9164 8.08996 61.267 7.48624L62.2868 5.73017C62.3431 5.6332 62.3444 5.51379 62.2902 5.41563L61.3192 3.65696C60.9829 3.04776 61.4236 2.30114 62.1194 2.30114V2.30114Z" fill="white"/>
</svg>
